Coordinates
version=1
nRows=60
nColumns=12
inDegrees=yes

Units are S.I. units (second, meters, Newtons, ...)
Angles are in degrees

endheader
time	SC_y	SC_z	SC_x	AC_y	AC_z	AC_x	GH_y	GH_z	GH_yy	EL_x	PS_y
       0.0              -38.43          6.545          68.31          61.17         -13.31         -5.282         -3.149          79.29          113.3          84.81          28.45
   0.02205              -38.43          6.543          68.31          61.16         -13.31         -5.278         -3.126          79.29          113.2          84.82          28.46
    0.0441              -38.43          6.542           68.3          61.16         -13.31         -5.274         -3.101          79.28          113.2          84.83          28.47
   0.06615              -38.43           6.54           68.3          61.16         -13.31          -5.27         -3.074          79.27          113.2          84.84          28.47
    0.0882              -38.43          6.539          68.29          61.15         -13.31         -5.266         -3.046          79.27          113.2          84.85          28.48
    0.1103              -38.42          6.537          68.29          61.15         -13.31         -5.261         -3.016          79.26          113.2          84.86          28.49
    0.1323              -38.42          6.535          68.28          61.15         -13.31         -5.257         -2.984          79.25          113.2          84.87           28.5
    0.1544              -38.42          6.533          68.27          61.14          -13.3         -5.251         -2.949          79.24          113.2          84.88          28.51
    0.1764              -38.42          6.531          68.27          61.14          -13.3         -5.246         -2.913          79.23          113.1          84.89          28.52
    0.1985              -38.42          6.529          68.26          61.14          -13.3          -5.24         -2.873          79.23          113.1           84.9          28.53
    0.2205              -38.41          6.526          68.25          61.13          -13.3         -5.234         -2.831          79.22          113.1          84.92          28.54
    0.2426              -38.41          6.523          68.24          61.13          -13.3         -5.227         -2.785           79.2          113.1          84.93          28.55
    0.2646              -38.41           6.52          68.23          61.12          -13.3         -5.219         -2.736          79.19          113.1          84.95          28.57
    0.2867              -38.41          6.517          68.22          61.12          -13.3         -5.211         -2.683          79.18          113.0          84.97          28.58
    0.3087               -38.4          6.514          68.21          61.11         -13.29         -5.203         -2.625          79.17          113.0          84.98          28.59
    0.3308               -38.4           6.51           68.2           61.1         -13.29         -5.193         -2.563          79.15          113.0           85.0          28.61
    0.3528              -38.39          6.506          68.18           61.1         -13.29         -5.183         -2.495          79.14          112.9          85.03          28.63
    0.3749              -38.39          6.502          68.17          61.09         -13.29         -5.172         -2.421          79.12          112.9          85.05          28.65
    0.3969              -38.39          6.497          68.15          61.08         -13.28          -5.16         -2.341           79.1          112.9          85.08          28.67
     0.419              -38.38          6.492          68.13          61.07         -13.28         -5.147         -2.252          79.08          112.8           85.1          28.69
     0.441              -38.38          6.486          68.12          61.06         -13.28         -5.132         -2.155          79.05          112.8          85.14          28.72
    0.4631              -38.37           6.48          68.09          61.05         -13.27         -5.116         -2.049          79.03          112.7          85.17          28.75
    0.4851              -38.36          6.473          68.07          61.03         -13.27         -5.098         -1.931           79.0          112.6          85.21          28.78
    0.5072              -38.36          6.466          68.04          61.02         -13.27         -5.079           -1.8          78.97          112.6          85.25          28.82
    0.5292              -38.35          6.457          68.02           61.0         -13.26         -5.057         -1.655          78.94          112.5           85.3          28.85
    0.5513              -38.34          6.448          67.98          60.99         -13.25         -5.033         -1.493           78.9          112.4          85.35           28.9
    0.5733              -38.33          6.437          67.95          60.97         -13.25         -5.005         -1.312          78.85          112.3          85.41          28.95
    0.5954              -38.32          6.425          67.91          60.95         -13.24         -4.975         -1.108          78.81          112.2          85.48           29.0
    0.6174               -38.3          6.411          67.86          60.92         -13.23          -4.94        -0.8771          78.75          112.1          85.55          29.06
    0.6395              -38.29          6.396          67.81          60.89         -13.22         -4.901        -0.6153          78.69          112.0          85.64          29.13
    0.6615              -38.27          6.379          67.75          60.86         -13.21         -4.856        -0.3164          78.62          111.8          85.73          29.21
    0.6836              -38.25          6.358          67.68          60.82          -13.2         -4.804        0.02658          78.54          111.7          85.85          29.31
    0.7056              -38.23          6.335           67.6          60.78         -13.19         -4.745         0.4226          78.44          111.5          85.97          29.41
    0.7277               -38.2          6.308          67.51          60.73         -13.17         -4.676         0.8827          78.33          111.2          86.12          29.54
    0.7497              -38.17          6.277           67.4          60.67         -13.15         -4.595          1.421           78.2          111.0           86.3          29.68
    0.7718              -38.14          6.239          67.28           60.6         -13.13         -4.499          2.056          78.05          110.6           86.5          29.85
    0.7938               -38.1          6.195          67.13          60.52         -13.11         -4.386           2.81          77.87          110.3          86.75          30.05
    0.8159              -38.05          6.142          66.94          60.42         -13.07          -4.25          3.714          77.66          109.8          87.04          30.29
    0.8379              -37.98          6.078          66.73          60.31         -13.04         -4.086          4.808           77.4          109.3           87.4          30.59
      0.86              -37.91          5.999          66.46          60.16         -12.99         -3.885          6.144          77.08          108.6          87.83          30.95
     0.882              -37.82          5.903          66.13          59.98         -12.93         -3.637          7.793          76.69          107.8          88.37          31.39
    0.9041               -37.7          5.782          65.72          59.76         -12.86         -3.329          9.849           76.2          106.7          89.04          31.94
    0.9261              -37.56           5.63           65.2          59.48         -12.77         -2.939          12.44          75.58          105.4          89.88          32.63
    0.9482              -37.37          5.437          64.55          59.12         -12.66         -2.445          15.73           74.8          103.8          90.95          33.52
    0.9702              -37.13           5.19          63.71          58.67         -12.51         -1.811          19.95           73.8          101.7          92.32          34.65
    0.9923              -36.83          4.872          62.63          58.08         -12.33        -0.9986          25.36          72.51          98.94          94.07           36.1
     1.014              -36.44          4.467          61.25          57.34         -12.09        0.03945          32.27          70.87          95.47          96.32          37.95
     1.036              -35.95          3.957          59.52           56.4         -11.79          1.345          40.95           68.8          91.11          99.14          40.28
     1.058              -35.36          3.336           57.4          55.25         -11.42          2.935          51.54          66.29          85.79          102.6          43.11
      1.08              -34.67          2.616          54.96          53.92          -11.0          4.779          63.81          63.37          79.63          106.6           46.4
     1.103              -33.92          1.836          52.31          52.49         -10.54          6.775           77.1          60.21          72.96          110.9          49.97
     1.125              -33.18          1.057          49.66          51.05         -10.08          8.772          90.38          57.05          66.29          115.2          53.53
     1.147              -32.49         0.3366          47.21          49.72         -9.659          10.62          102.7          54.13          60.12          119.2          56.82
     1.169               -31.9        -0.2846           45.1          48.58         -9.294          12.21          113.2          51.61          54.81          122.6          59.65
     1.191              -31.41        -0.7943          43.36          47.64         -8.994          13.51          121.9          49.55          50.44          125.4          61.98
     1.213              -31.02           -1.2          41.99          46.89         -8.755          14.55          128.8          47.91          46.97          127.7          63.84
     1.235              -30.72         -1.517          40.91           46.3         -8.568          15.36          134.2          46.62          44.26          129.4          65.29
     1.257              -30.48         -1.764          40.07          45.85         -8.423           16.0          138.5          45.62          42.14          130.8          66.42
     1.279              -30.29         -1.958          39.41          45.49         -8.309          16.49          141.8          44.83          40.49          131.9           67.3
     1.301              -30.15          -2.11          38.89          45.21          -8.22          16.88          144.3          44.22          39.18          132.7          67.99
